<?xml version="1.0" encoding="UTF-8" standalone="no"?>
<!-- Created with Inkscape (http://www.inkscape.org/) -->

<svg
   xmlns:dc="http://purl.org/dc/elements/1.1/"
   xmlns:cc="http://creativecommons.org/ns#"
   xmlns:rdf="http://www.w3.org/1999/02/22-rdf-syntax-ns#"
   xmlns:svg="http://www.w3.org/2000/svg"
   xmlns="http://www.w3.org/2000/svg"
   version="1.1"
   width="466.57788"
   height="254.54059"
   viewBox="0 0 466.57786 254.54058"
   id="Layer_2"
   xml:space="preserve"><metadata
   id="metadata17"><rdf:RDF><cc:Work
       rdf:about=""><dc:format>image/svg+xml</dc:format><dc:type
         rdf:resource="http://purl.org/dc/dcmitype/StillImage" /><dc:title></dc:title></cc:Work></rdf:RDF></metadata><defs
   id="defs15" />
<g
   transform="translate(-106.19201,-202.60976)"
   id="g3">
	<path
   d="m 546.256,398.554 c -0.061,0.016 -0.115,0.025 -0.18,0.044 -0.004,0.042 0.064,0.02 0.18,-0.044 z"
   id="path5"
   style="fill:none" />
	<path
   d="m 503.909,207.787 c 0.22,0.967 0.631,0.043 0,0 l 0,0 z"
   id="path7"
   style="fill:none" />
	<path
   d="m 562.982,367.81 c 3.835,-2.194 2.721,-27.951 2.405,-27.973 0.104,-3.064 -0.698,-71.107 0.603,-71.017 4.176,-7.019 -0.374,-22.24 0.13,-29.559 0.507,0.392 -6.435,-10.427 -6.662,-7.137 -1.578,-0.109 -6.323,-8.61 -10.294,-9.771 0.239,-3.471 -20.015,-7.151 -19.821,-9.951 -0.839,0.219 -13.139,-3.114 -13.16,-2.814 -4.27,-0.295 -6.703,-1.598 -9.489,-1.641 -0.862,-0.014 0.014,0.692 -0.006,0.986 -2.423,-0.167 0.911,-0.892 -2.78,-1.146 0.631,0.043 0.22,0.967 0,0 0.136,0.594 0.416,0.878 0.376,1.456 -2.344,-0.753 -7.87,-3.475 -8.137,0.394 -2.928,-0.695 -9.454,-0.292 -8.985,-1.095 -1.983,0.086 -1.566,0.285 -1.522,1.326 -4.343,-0.983 -12.575,3.168 -15.928,0.659 -1.829,-1.368 -6.722,-0.313 -9.359,-0.495 -1.994,-0.629 -6.205,-0.064 -8.068,-0.557 -2.798,-0.192 -21.359,-1.068 -22.472,0.837 -4.465,-0.026 -64.701,-2.312 -64.913,0.769 -4.721,0.884 -54.711,-1.942 -54.88,0.509 -12.161,-0.838 -21.09,0.453 -32.884,-0.361 -0.086,1.254 -21.699,-1.323 -22.946,0.805 -2.073,-0.143 -30.933,-0.967 -30.983,-0.229 -2.602,-0.179 -26.677,-0.439 -26.712,0.068 -7.084,-0.488 -11.968,-2.025 -19.527,-0.394 0.006,-0.102 -19.965,0.53 -21.489,0.425 -0.01,0.15 -7.963,2.792 -9.248,2.703 -0.067,0.975 -9.372,3.974 -11.278,4.467 0.182,1.009 0.216,3.353 0.248,3.355 -0.157,2.278 -3.646,12.15 -7.021,11.917 0.986,-1.032 1.548,-2.265 1.686,-3.701 -3.37,-0.232 -1.04,2.979 -3.619,4.043 -0.494,-1.921 -0.318,-1.044 0.164,-2.372 -5.339,1.217 0.744,10.064 -8.281,9.442 1.179,-1.68 1.942,-3.535 2.29,-5.563 -11.806,-0.813 -6.407,53.924 -7.525,53.847 -0.049,0.718 2.383,7.794 0.9,7.692 -0.074,1.704 -0.897,2.353 -0.738,3.765 -0.264,3.827 0.074,5.868 -0.146,9.052 1.202,0.083 -1.673,17.358 -1.719,18.003 4.748,0.328 -0.105,13.759 0.281,16.713 5.076,0.35 0.303,23.866 2.633,24.026 -2.043,7.522 2.368,11.454 2.587,17.824 1.731,0.65 9.337,9.854 9.314,10.179 3.042,-0.78 4.073,3.622 7.366,3.849 0.968,2.315 15.08,2.607 14.926,4.843 1.044,-0.433 12.185,3.139 12.146,3.699 4.574,0.315 6.003,1.369 11.088,1.719 1.575,0.108 20.189,1.152 20.238,0.44 4.907,-0.424 19.176,2.255 23.032,0.013 4.7,-2.732 15.509,-2.125 20.014,-1.814 0.065,-0.944 18.465,-1.634 21.623,-2.326 11.758,0.811 27.92,-1.773 40.948,-3.1 10.892,-1.109 19.395,-1.117 29.006,-1.614 6.014,-0.507 7.205,1.079 12.209,2.749 0.662,3.75 7.876,15.068 7.601,19.07 1.911,1.12 3.33,8.336 4.666,8.428 -0.232,3.374 6.79,19.546 11.13,18.413 2.25,5.362 37.969,-35.482 44.528,-35.03 0.029,-0.427 27.238,-2.824 30.549,-2.361 2.942,0.411 29.813,-1.58 29.912,-3.007 1.059,0.342 14.264,0.637 14.404,-1.393 5.368,1.425 8.822,0.132 14.271,0.507 0.193,-2.799 22.664,-3.728 27.449,-3.831 0.146,-2.114 7.243,-0.997 8.839,-3.684 4.908,-0.466 9.769,-3.043 15.482,-3.225 0.372,-1.03 -0.026,-1.388 -1.179,-1.09 -0.116,0.064 -0.184,0.086 -0.18,0.044 0.065,-0.02 0.119,-0.029 0.18,-0.044 1.437,-0.802 11.317,-9.179 11.423,-9.171 0.149,-2.157 -0.106,-1.925 0.36,-5.222 2.354,0.162 -0.667,1.384 2.277,1.587 0.192,-2.789 1.767,-4.881 1.979,-7.97 4.326,-1.816 -0.633,-7.089 0.688,-9.965 z m -9.819,4.091 c -0.426,6.178 -11.977,9.805 -15.764,14.176 -6.488,-0.447 -11.671,2.608 -19.722,2.455 -0.117,1.697 -71.72,3.165 -79.347,2.639 -0.051,0.738 -24.114,1.701 -27.665,1.766 -4.034,0.074 -5.339,-3.073 -10.096,-0.556 -1.267,2.174 -7.936,5.641 -10.54,7.62 -3.137,2.384 -12.891,18.847 -13.12,22.173 -4.374,1.81 -8.943,12.738 -13.258,12.44 -0.136,-3.41 -1.845,-33.459 -4.212,-33.622 0.676,-9.795 -9.346,-7.322 -18.291,-7.939 -6.429,-0.443 -10.91,0.085 -18.35,-0.151 -14.48,-0.461 -29.556,-3.367 -43.854,-0.32 -15.792,-1.088 -28.671,2.316 -44.437,1.229 -0.146,2.122 -54.441,2.446 -60.707,2.014 -0.119,1.719 -24.646,-2.234 -24.455,-5.023 -3.616,-0.69 -10.46,-7.559 -10.822,-10.918 -0.357,-3.308 -4.249,-5.659 -3.974,-9.655 -1.049,-0.072 -1.406,-21.118 -1.245,-23.455 0.696,0.048 2.818,-37.004 1.128,-37.121 -1.817,-8.545 0.554,-17.377 -0.098,-26.238 0,0 -0.336,-17.131 -0.48,-19.511 -0.42,-6.93 2.039,-9.995 2.396,-15.172 -1.694,-0.117 8.081,-12.276 8.576,-13.718 3.07,0.212 4.037,-4.49 6.97,-4.288 1.936,-2.503 8.555,-1.793 11.793,-1.57 27.679,1.908 53.957,-3.911 82.403,-1.95 0.022,-0.317 88.152,-1.076 97.082,-0.461 4.915,0.339 54.005,1.809 54.037,1.339 1.547,0.107 22.897,-0.056 22.916,-0.327 4.882,0.191 27.298,3.453 30.207,0.829 3.188,-2.875 49.84,7.14 50.172,2.326 2.261,0.156 21.998,-0.863 21.999,-0.866 3.734,1.535 14.51,2.907 18.855,3.207 0.003,-0.045 5.978,4.062 6.793,5.237 3.957,3.979 4.715,6.217 6.175,11.871 2.386,9.236 -0.097,24.789 -1.128,34.763 -1.216,11.755 -1.203,20.278 -0.122,32.017 0.865,9.39 3.12,19.099 2.558,27.264 1.69,0.118 2.723,27.848 -2.373,27.496 z"
   id="path9" />
	<path
   d="m 144.826,235.015 c -0.414,1.208 0.317,0.022 0,0 l 0,0 z"
   id="path11" />
</g>
</svg>